<?xml version="1.0" encoding="UTF-8" standalone="no"?>
<svg
   xmlns:dc="http://purl.org/dc/elements/1.1/"
   xmlns:cc="http://creativecommons.org/ns#"
   xmlns:rdf="http://www.w3.org/1999/02/22-rdf-syntax-ns#"
   xmlns:svg="http://www.w3.org/2000/svg"
   xmlns="http://www.w3.org/2000/svg"
   xmlns:sodipodi="http://sodipodi.sourceforge.net/DTD/sodipodi-0.dtd"
   xmlns:inkscape="http://www.inkscape.org/namespaces/inkscape"
   version="1.1"
   id="ophira-logo"
   x="0px"
   y="0px"
   viewBox="0 0 235.76927 223.60017"
   style="fill:#ffffff"
   xml:space="preserve"
   sodipodi:docname="ophira.svg"
   width="235.76927"
   height="223.60017"><style>
	.st0{fill:#000000;}
</style><g
     id="g79"
     transform="translate(-139.91536,-67.7)"><path
       d="m 259,198.8 2.3,0.6 h 1.3 c 0.5,0.2 1,0.3 1.5,0.5 0.4,0.2 0.8,0.3 1.2,0.5 0.4,0.1 0.6,0.3 0.8,0.4 0.6,0.3 1.4,0.6 2.2,0.9 0.8,0.2 1.5,0.6 2,1.2 0.3,0.3 0.7,0.8 1,1.5 0.4,0.7 0.7,1.2 1,1.5 1.4,1.2 2.3,2.4 2.7,3.5 0.4,1.1 0.6,2.1 0.6,3 l -0.2,4.2 v 1.8 c 0,0.5 -0.2,1.2 -0.5,2.1 -0.4,0.9 -0.8,1.9 -1.3,2.9 -0.5,1 -0.9,1.9 -1.4,2.8 -0.4,0.9 -0.7,1.4 -0.8,1.7 -0.3,0.9 -0.8,1.6 -1.5,2.2 -0.7,0.6 -1.5,1 -2.2,1.4 -1.1,0.9 -2.2,1.7 -3.2,2.4 -1,0.7 -2.1,1.1 -3.3,1.1 -0.5,0 -1,-0.1 -1.5,-0.2 -0.5,-0.1 -1.1,-0.2 -2,-0.2 -0.2,0 -0.4,0 -0.6,0 -0.3,0 -0.5,0.1 -0.8,0.1 -0.3,0 -0.7,0.1 -1,0.1 h -1.1 c -0.3,0 -0.8,-0.1 -1.3,-0.2 -0.5,-0.1 -1,-0.3 -1.5,-0.5 -0.5,-0.2 -1.1,-0.5 -1.8,-0.8 -1.1,-0.5 -2.3,-1.1 -3.5,-1.7 -1.2,-0.6 -2.1,-1.6 -2.8,-3.1 -0.9,-2.1 -1.7,-4.3 -2.4,-6.6 -0.7,-2.3 -1.1,-4.5 -1.1,-6.6 0,-0.4 0,-0.8 0.1,-1.1 0.1,-0.3 0.2,-0.7 0.3,-1 0.1,-0.4 0.3,-0.7 0.4,-1.1 0.2,-0.4 0.3,-0.9 0.5,-1.4 0,-0.6 0.1,-1.2 0.3,-1.8 0.2,-0.5 0.5,-1.1 0.8,-1.8 0,-0.1 0.2,-0.5 0.6,-1.2 0.4,-0.7 0.8,-1.4 1.4,-2.1 0.6,-0.7 1.1,-1.4 1.7,-2 0.6,-0.6 1.1,-0.9 1.5,-0.9 l 1.8,-0.7 c 0.5,0 1,0 1.5,-0.1 0.4,0 0.9,-0.2 1.4,-0.4 0.5,-0.2 0.9,-0.4 1.3,-0.5 0.4,-0.1 0.8,-0.2 1.3,-0.2 h 3 1.3 z m -5.4,4.9 c -0.7,0 -1.4,0.5 -2.1,1.4 -0.7,1 -1.4,2.1 -1.9,3.3 -0.6,1.2 -1,2.4 -1.4,3.6 -0.4,1.2 -0.5,1.9 -0.5,2.2 v 1.1 3.8 c 0,0.6 0.4,1.5 1.1,2.7 0.7,1.2 1.6,2.4 2.7,3.6 1.1,1.2 2.3,2.3 3.5,3.2 1.2,0.9 2.4,1.4 3.4,1.4 h 1.2 c 0.9,0 1.8,-0.2 2.9,-0.7 1,-0.5 2,-1.1 2.8,-1.9 0.9,-0.8 1.6,-1.7 2.2,-2.8 0.6,-1.1 0.9,-2.2 0.9,-3.4 v -1.8 -4.2 c 0,-0.9 -0.1,-1.6 -0.3,-2.1 -0.2,-0.5 -0.5,-1 -0.9,-1.5 -0.4,-0.5 -0.8,-1 -1.3,-1.6 -0.5,-0.6 -1,-1.4 -1.6,-2.5 -0.3,-0.3 -0.7,-0.6 -1.1,-0.9 -0.4,-0.3 -0.8,-0.7 -1.3,-1.1 -0.4,-0.3 -0.9,-0.6 -1.4,-0.9 -0.5,-0.3 -0.9,-0.4 -1.4,-0.4 h -1.2 c -0.3,0 -0.7,0 -1.2,-0.1 -0.5,0 -0.9,-0.1 -1.4,-0.2 -0.6,0 -1.1,-0.1 -1.7,-0.2 z"
       id="path77"
       inkscape:connector-curvature="0" /></g><g
     id="Layer_6"
     transform="translate(-139.91536,-67.7)"><path
       d="m 257.8,69.4 c 0.9,-0.1 0.2,-1.7 1.6,-1.7 1.4,0 11.7,18.9 11.4,22.7 -0.2,3.8 -1.2,11.2 -0.8,12.8 0.4,1.7 1.2,10.1 2.7,12.7 1.5,2.6 5.9,10 6.3,11.3 0.3,1.3 0,4.2 0,4.2 0,0 4.6,2.2 4.9,3.3 0,0 -0.8,7.8 0.8,9.8 1.6,2 3.3,5.2 4.7,5.9 1.4,0.7 -1.9,4.8 -1.9,4.8 0,0 -1.3,-0.1 -1.4,-0.3 -0.1,-0.2 0.9,4.4 0.4,6 -0.4,1.6 -4.1,7.9 -3.5,13.1 0.6,5.2 7.3,8.1 10,11.6 2.7,3.5 3.8,5.4 4.6,5.6 0.8,0.2 4.5,1.6 6.7,3.4 2.2,1.8 5.3,5 7.6,5.5 2.3,0.5 11.8,4.4 22.8,4 10.9,-0.4 22.7,-2.2 22.6,-10 -0.1,-7.8 -7.7,0.6 -10.9,0.4 -3.2,-0.2 -9.6,-3.2 -11.1,-6.1 -1.5,-2.9 1.7,1.3 7.6,0.6 5.8,-0.7 12.5,-9.9 22.1,-6.2 9.6,3.7 5.9,19.2 5.9,19.2 0,0 -3.6,8.3 -3.2,10 0.4,1.7 10,40.1 7.6,44 -2.3,3.9 -11.7,16.7 -14.3,16.3 -2.7,-0.4 7.3,-8.3 7.1,-15.6 -0.1,-7.3 -9.3,-34.8 -9.8,-38.4 -0.4,-3.6 1.2,-4.6 0,-5.9 -1.2,-1.3 -7,2.1 -6.5,3.1 0.4,1 4.4,6.1 4.7,7.9 0.3,1.8 1.5,12.6 0.1,20.6 -1.3,8 -6.4,14.8 -5.2,16.3 1.2,1.5 5.3,6.5 5.3,6.5 0,0 -5.2,-1.6 -7.1,-1 -1.9,0.6 -9.1,24.1 -22.2,25.5 -1.3,0.1 27.9,-44.4 18.2,-64 -9.6,-19.6 -14.5,-8.9 -14.5,-8.9 0,0 2.8,53 -19.9,71.3 0,0 15.9,-56.3 7.1,-70.7 0,0 -5.8,-3.1 -13.5,-6.5 -7.7,-3.4 -10.1,-8.6 -13,-7.4 -3,1.2 -0.4,21.3 -2.4,25.3 -1.9,4 -7.2,13.6 -14.7,12.3 -0.6,-0.1 15.2,-20.3 5.1,-24.9 0,0 -4.8,3.8 -0.3,-2.1 1.1,-1.5 2.6,-23.9 -9.3,-23.3 -11.9,0.6 -5.8,2.2 -12.6,2.2"
       id="path81"
       inkscape:connector-curvature="0" /><path
       d="m 257.8,69.4 c -0.9,-0.1 -0.2,-1.7 -1.6,-1.7 -1.3,0 -11.7,18.9 -11.4,22.7 0.2,3.8 1.2,11.2 0.8,12.8 -0.4,1.6 -1.2,10.1 -2.7,12.7 -1.5,2.6 -5.9,10 -6.3,11.3 -0.3,1.3 0,4.2 0,4.2 0,0 -4.6,2.2 -4.9,3.3 0,0 0.8,7.8 -0.8,9.8 -1.6,2 -3.3,5.2 -4.7,5.9 -1.4,0.7 1.9,4.8 1.9,4.8 0,0 1.3,-0.1 1.4,-0.3 0.1,-0.2 -0.9,4.4 -0.4,6 0.5,1.6 4.1,7.9 3.5,13.1 -0.6,5.2 -7.3,8.1 -10,11.6 -2.7,3.5 -3.8,5.4 -4.6,5.6 -0.8,0.2 -4.5,1.6 -6.7,3.4 -2.2,1.8 -5.3,5 -7.6,5.5 -2.3,0.5 -11.8,4.4 -22.8,4 -11,-0.4 -22.7,-2.2 -22.6,-10 0.1,-7.8 7.7,0.6 10.9,0.4 3.2,-0.2 9.6,-3.2 11.1,-6.1 1.5,-2.9 -1.7,1.3 -7.6,0.6 -5.8,-0.7 -12.5,-9.9 -22.1,-6.2 -9.6,3.7 -5.9,19.2 -5.9,19.2 0,0 3.6,8.3 3.2,10 -0.4,1.7 -10,40.1 -7.6,44 2.3,3.9 11.7,16.7 14.3,16.3 2.7,-0.4 -7.3,-8.3 -7.1,-15.6 0.1,-7.3 9.3,-34.8 9.8,-38.4 0.4,-3.6 -1.2,-4.6 0,-5.9 1.2,-1.3 7,2.1 6.5,3.1 -0.5,1 -4.4,6.1 -4.7,7.9 -0.3,1.8 -1.5,12.6 -0.1,20.6 1.3,8 6.4,14.8 5.2,16.3 -1.2,1.5 -5.3,6.5 -5.3,6.5 0,0 5.2,-1.6 7.1,-1 1.9,0.6 9.1,24.1 22.2,25.5 1.3,0.1 -27.9,-44.4 -18.2,-64 9.6,-19.6 14.5,-8.9 14.5,-8.9 0,0 -2.8,53 19.9,71.3 0,0 -15.9,-56.3 -7.1,-70.7 0,0 5.8,-3.1 13.5,-6.5 7.7,-3.4 10.1,-8.6 13,-7.4 3,1.2 0.4,21.3 2.4,25.3 1.9,4 7.2,13.6 14.7,12.3 0.6,-0.1 -15.2,-20.3 -5.1,-24.9 0,0 4.8,3.8 0.3,-2.1 -1.1,-1.5 -2.6,-23.9 9.3,-23.3 11.9,0.6 5.8,2.2 12.6,2.2"
       id="path83"
       inkscape:connector-curvature="0" /></g><g
     id="Layer_2"
     transform="translate(-139.91536,-67.7)"><path
       class="st0"
       d="m 233.9,148.4 c 1.2,0 13.4,-16.7 13.6,-18.3 0.1,-1.7 -2.9,0.1 -4.6,0.7 -1.7,0.6 1.9,0.3 1.9,0.7 0,0.4 -5.7,0.7 -7.9,4.2 -2.2,3.6 -1.7,6.1 -2,8.2 -0.3,2.1 -1,4.5 -1,4.5 z"
       id="path86"
       inkscape:connector-curvature="0"
       style="fill:#000000" /><path
       class="st0"
       d="m 282,148.4 c -1.2,0 -13.4,-16.7 -13.6,-18.3 -0.1,-1.7 2.9,0.1 4.6,0.7 1.7,0.6 -1.9,0.3 -1.9,0.7 0,0.4 5.7,0.7 7.9,4.2 2.2,3.6 1.7,6.1 2,8.2 0.3,2.1 1,4.5 1,4.5 z"
       id="path88"
       inkscape:connector-curvature="0"
       style="fill:#000000" /><path
       class="st0"
       d="m 255.7,73.2 c 1.1,0 2.8,14.6 1.2,18.2 -1.6,3.7 -4.9,-3.4 -4.9,-4.8 0,-1.3 3.7,-13.4 3.7,-13.4 z"
       id="path90"
       inkscape:connector-curvature="0"
       style="fill:#000000" /><path
       class="st0"
       d="m 260.9,73.2 c -1.1,0 -2.8,14.6 -1.2,18.2 1.6,3.7 4.9,-3.4 4.9,-4.8 -0.1,-1.3 -3.7,-13.4 -3.7,-13.4 z"
       id="path92"
       inkscape:connector-curvature="0"
       style="fill:#000000" /></g></svg>